<svg id="Layer_1" data-name="Layer 1" xmlns="http://www.w3.org/2000/svg" viewBox="0 0 719 563.62"><defs><style>.cls-1{fill:#949495;}.cls-2{fill:#00a3ff;}.cls-3{fill:#00c8dc;}.cls-4{fill:#006eff;}</style></defs><title>tencentcloudlogo-freelogovectors.net</title><path class="cls-1" d="M516.23,636.77a38.36,38.36,0,0,1-28.53,13c-18.36,0-30.23-12.68-30.23-32.32,0-20,11.31-32.43,29.51-32.43A41.22,41.22,0,0,1,515.19,597a.56.56,0,0,0,.8,0,.57.57,0,0,0,.19-.43V586.45c-7.44-6.7-18.23-10.74-29.2-10.74-11.43,0-21.11,4-28,11.56s-10.41,17.93-10.41,30.22c0,25,15.72,41.78,39.12,41.78,11.17,0,22.07-4.14,29.53-11V637.15a.58.58,0,0,0-.59-.56.59.59,0,0,0-.41.18m-433.85-59H18v8.69H45.44v70.73h9.5V586.47H82.37ZM709,650c-9,0-18.76-6.69-18.76-21.36,0-10.79,5.69-22.39,18.19-22.39,13.94,0,18.89,11.81,18.89,21.93C727.28,639.07,721,650,709,650Zm18.57-72.13v27c-4.91-5.32-13.12-7.26-19-7.26a26.85,26.85,0,0,0-20,8.29c-5.11,5.5-7.81,13.12-7.81,22,0,21.18,14.06,30.67,28,30.67,8.13,0,14.85-2.91,18.8-8.06v6.7H737v-79.4h-9.47ZM529.8,657.32h9.61v-79.4H529.8ZM203.08,628.17c0,18.26,11.82,30.52,29.43,30.52a35.49,35.49,0,0,0,20.56-6.26v-9.82a.58.58,0,0,0-.58-.57.59.59,0,0,0-.38.14C245.93,647.77,236.94,650,233,650c-12.74,0-21-8.55-21-21.78s8.23-21.77,21-21.77c3.93,0,12.64,1.11,19.1,6.68a.57.57,0,0,0,.95-.43V603.9c-3.89-2.45-12.09-6.24-20.56-6.24-17.61,0-29.43,12.26-29.43,30.51M87.14,622.7l0-.18a17.68,17.68,0,0,1,6.45-12.59A17.88,17.88,0,0,1,105,606c10.35,0,17.09,6.33,17.6,16.53v.17Zm18.11-25c-16.62,0-27.36,11.9-27.36,30.32.61,19.18,11.51,30.63,29.14,30.63a32.07,32.07,0,0,0,21.91-8.4v-9.47a.58.58,0,0,0-1-.35c-4.22,5.57-14.31,10.06-20.52,10.06-5.94,0-11.52-2-14.56-5.11a20.56,20.56,0,0,1-5.66-14.48h44.43v-.68c0-12.53-2.14-19.63-7.62-25.34-4.57-4.76-10.87-7.18-18.72-7.18Zm555.27,31c0,15.82-9.12,21.43-16.93,21.43-7.57,0-15.62-5.24-15.62-14.94V599h-9v36c0,13.94,10,23.67,24.2,23.67,7.89,0,14-2.65,18-7.72v6.35h8.61V599h-9.18Zm-491.6-31c-7.27,0-13.44,2.43-17.57,6.89V599h-9v58.33h9.17V624.09c0-5.49,1.68-10.16,4.73-13.14a16.12,16.12,0,0,1,12.39-4.56c7.19.22,14.45,5,14.45,15.12v35.81h9.17V621.08c0-7.18-2.28-13.17-6.6-17.32-4.15-4-9.95-6.08-16.77-6.08m102.28,25v-.18a17.68,17.68,0,0,1,6.45-12.59A17.9,17.9,0,0,1,289.05,606c10.35,0,17.09,6.33,17.6,16.53v.17Zm18.11-25c-16.63,0-27.36,11.9-27.36,30.32.6,19.18,11.49,30.63,29.14,30.63a32,32,0,0,0,21.89-8.4v-9.47a.57.57,0,0,0-1-.35c-4.22,5.57-14.32,10.06-20.52,10.06-5.93,0-11.51-2-14.56-5.11a20.56,20.56,0,0,1-5.66-14.48h44.43v-.68c0-12.53-2.14-19.63-7.62-25.34-4.57-4.76-10.87-7.18-18.71-7.18Zm63.51,0c-7.27,0-13.43,2.43-17.57,6.89V599h-9v58.33h9.17V624.09c0-5.49,1.68-10.16,4.74-13.14a16.08,16.08,0,0,1,12.38-4.56c7.19.22,14.45,5,14.45,15.12v35.81h9.17V621.08c0-7.18-2.28-13.17-6.6-17.32-4.15-4-9.95-6.08-16.77-6.08m51.66-14.24H395V599h-9.57v8.48H395v40.1c0,3.45,1.05,6.12,3.12,7.93a12.06,12.06,0,0,0,8.12,2.59,47.47,47.47,0,0,0,11.95-2.71v-8.79a.59.59,0,0,0-.58-.57.58.58,0,0,0-.19,0,70.37,70.37,0,0,1-9.83,2.7c-1,.15-1.8.29-2.44-.25a2.14,2.14,0,0,1-.62-1.85V607.46h16.79V599H404.48Zm175.78,66.44c-11.66,0-19.5-8.77-19.51-21.71v0c0-12.91,7.87-21.57,19.51-21.57s19.51,8.7,19.51,21.65-7.84,21.65-19.51,21.65m0-52.1C563.34,597.78,552,610,552,628.23s11.36,30.44,28.28,30.44,28.29-12.23,28.29-30.44-11.37-30.45-28.29-30.45" transform="translate(-18 -95.65)"/><path class="cls-2" d="M575.41,414.12c-8.7,8.68-26.09,21.67-56.55,21.67h-187c56.55-54.15,104.4-99.64,108.75-104A332.07,332.07,0,0,1,466.67,308c21.76-19.5,39.15-21.66,54.38-21.66,21.74,0,39.13,8.66,54.36,21.64C605.87,336.13,605.87,386,575.41,414.12Zm37-140.82a121.7,121.7,0,0,0-89.17-39c-30.44,0-56.54,10.85-80.47,28.18C434,271.14,421,279.8,410.12,292.8c-8.7,8.68-195.73,190.66-195.73,190.66,10.86,2.17,23.92,2.17,34.78,2.17H486.24c17.4,0,30.46,0,43.48-2.17a133.93,133.93,0,0,0,80.5-34.67C660.23,401.14,660.23,321,612.38,273.3Z" transform="translate(-18 -95.65)"/><path class="cls-3" d="M307.9,260.3c-23.92-17.32-47.85-26-76.12-26a121.73,121.73,0,0,0-89.17,39A125.87,125.87,0,0,0,144.8,451c21.74,19.5,43.48,30.34,69.59,32.5l50-47.67H236.13c-28.28-2.15-45.67-10.82-56.55-21.65a77.66,77.66,0,0,1-2.16-108.33c15.21-15.17,32.62-21.67,54.36-21.67,13.06,0,32.62,2.15,52.2,21.65,8.7,8.67,32.62,26,41.34,34.69h2.14L360.1,308v-2.16c-15.21-15.17-39.15-34.67-52.2-45.51" transform="translate(-18 -95.65)"/><path class="cls-4" d="M536.26,206.15A169.7,169.7,0,0,0,377.5,95.65c-84.82,0-152.25,62.82-165.28,140.82,6.53,0,13.07-2.15,21.76-2.15s19.56,2.15,28.28,2.15C273.12,182.3,321,143.3,377.52,143.3c47.83,0,89.16,28.2,108.72,69.34,0,0,2.19,2.16,2.19,0,15.21-2.16,32.62-6.49,47.83-6.49h0" transform="translate(-18 -95.65)"/></svg>